# xmcd CD database file
#
# Track frame offsets:
#	182
#	12965
#	25890
#	37695
#	49770
#	60527
#	71377
#	81887
#	96700
#	107372
#	119162
#	130695
#	145515
#	157072
#	171990
#	182232
#	194027
#	204857
#	216950
#	229000
#	240805
#	250117
#	261290
#
# Disc length: 3600 seconds
#
# Revision: 1
# Processed by: cddbd v1.4PL0 Copyright (c) Steve Scherf et al.
# Submitted via: CDex 1.50beta9
#
DISCID=3f0e0e17
DTITLE=Jimmy Reed - The New Jimmy Reed Album/Soulin'
DYEAR=1997
DGENRE=Blues
TTITLE0=Big Boss Man
TTITLE1=I Wanna Know
TTITLE2=Got Nowhere To Go
TTITLE3=Two Ways To Skin A Cat
TTITLE4=Heartaches and Trouble
TTITLE5=Tell Me What You Want Me To Do
TTITLE6=Honey, I'll Make Do
TTITLE7=You Don't Have To Go
TTITLE8=Don't Play Me Cheap
TTITLE9=Two Sides To Every Story
TTITLE10=I'm Just Trying To Cop A Plea
TTITLE11=Two Heads Are Better Than One
TTITLE12=Buy Me A Hound Dog
TTITLE13=Feel Like I Want To Ramble
TTITLE14=I Wake Up Daybreak
TTITLE15=Peepin' and Hidin'
TTITLE16=Don't Press Your Luck Woman
TTITLE17=I'm Not Going To Let You Down
TTITLE18=I'm Knockin' At Your Door
TTITLE19=Crazy 'Bout Oklahoma
TTITLE20=Cousin Peaches
TTITLE21=Ain't No Time For Fussin'
TTITLE22=Dedication To Sonny
EXTD=YEAR: 1997
EXTT0=
EXTT1=
EXTT2=
EXTT3=
EXTT4=
EXTT5=
EXTT6=
EXTT7=
EXTT8=
EXTT9=
EXTT10=
EXTT11=
EXTT12=
EXTT13=
EXTT14=
EXTT15=
EXTT16=
EXTT17=
EXTT18=
EXTT19=
EXTT20=
EXTT21=
EXTT22=
PLAYORDER=
